<mxfile host="app.diagrams.net" modified="2021-07-14T17:31:48.931Z" agent="5.0 (Macintosh; Intel Mac OS X 10_15_7) AppleWebKit/537.36 (KHTML, like Gecko) Chrome/91.0.4472.114 Safari/537.36" etag="GlPbJz-KXBfrjP4CEAWQ" version="14.8.6" type="github">
  <diagram id="AftbXou0pc3vfyo0zP3o" name="ci-cd">
    <mxGraphModel dx="1426" dy="1874" grid="1" gridSize="10" guides="1" tooltips="1" connect="1" arrows="1" fold="1" page="1" pageScale="1" pageWidth="850" pageHeight="1100" math="0" shadow="0">
      <root>
        <mxCell id="0" />
        <mxCell id="1" parent="0" />
        <mxCell id="i0SEawwarpiQ7QVsPoZW-1" value="&lt;font style=&quot;font-size: 18px&quot;&gt;Source&lt;/font&gt;" style="shape=step;perimeter=stepPerimeter;whiteSpace=wrap;html=1;fixedSize=1;" vertex="1" parent="1">
          <mxGeometry x="80" y="450" width="120" height="80" as="geometry" />
        </mxCell>
        <mxCell id="i0SEawwarpiQ7QVsPoZW-2" value="&lt;font style=&quot;font-size: 18px&quot;&gt;Build&lt;/font&gt;" style="shape=step;perimeter=stepPerimeter;whiteSpace=wrap;html=1;fixedSize=1;" vertex="1" parent="1">
          <mxGeometry x="200" y="450" width="120" height="80" as="geometry" />
        </mxCell>
        <mxCell id="i0SEawwarpiQ7QVsPoZW-3" value="&lt;font style=&quot;font-size: 18px&quot;&gt;Test&lt;/font&gt;" style="shape=step;perimeter=stepPerimeter;whiteSpace=wrap;html=1;fixedSize=1;" vertex="1" parent="1">
          <mxGeometry x="320" y="450" width="120" height="80" as="geometry" />
        </mxCell>
        <mxCell id="i0SEawwarpiQ7QVsPoZW-4" value="&lt;font style=&quot;font-size: 16px&quot;&gt;Production&lt;/font&gt;" style="shape=step;perimeter=stepPerimeter;whiteSpace=wrap;html=1;fixedSize=1;fontSize=16;" vertex="1" parent="1">
          <mxGeometry x="440" y="450" width="120" height="80" as="geometry" />
        </mxCell>
        <mxCell id="i0SEawwarpiQ7QVsPoZW-5" value="Text" style="text;html=1;strokeColor=none;fillColor=none;align=center;verticalAlign=middle;whiteSpace=wrap;rounded=0;" vertex="1" parent="1">
          <mxGeometry x="400" y="940" width="40" height="20" as="geometry" />
        </mxCell>
        <mxCell id="i0SEawwarpiQ7QVsPoZW-6" value="&lt;font style=&quot;font-size: 18px&quot;&gt;&lt;b&gt;Continuous Integration&lt;/b&gt;&lt;/font&gt;" style="shape=singleArrow;whiteSpace=wrap;html=1;" vertex="1" parent="1">
          <mxGeometry x="80" y="550" width="360" height="110" as="geometry" />
        </mxCell>
        <mxCell id="i0SEawwarpiQ7QVsPoZW-7" value="&lt;font style=&quot;font-size: 18px&quot;&gt;&lt;b&gt;Continuous Delivery&lt;/b&gt;&lt;/font&gt;" style="shape=singleArrow;whiteSpace=wrap;html=1;" vertex="1" parent="1">
          <mxGeometry x="70" y="650" width="490" height="130" as="geometry" />
        </mxCell>
      </root>
    </mxGraphModel>
  </diagram>
</mxfile>
